<?xml version="1.0" encoding="utf-8"?>
<!-- Generator: Adobe Illustrator 28.0.0, SVG Export Plug-In . SVG Version: 6.00 Build 0)  -->
<svg version="1.1" id="Layer_2_00000011022084952728001030000001849076858270606755_"
	 xmlns="http://www.w3.org/2000/svg" xmlns:xlink="http://www.w3.org/1999/xlink" x="0px" y="0px" viewBox="0 0 217.7 276.6"
	 style="enable-background:new 0 0 217.7 276.6;" xml:space="preserve">
<style type="text/css">
	.st0{fill:#D6D6CB;}
</style>
<g id="Layer_1-2">
	<path class="st0" d="M159,226c0.2,0.9,0.1,1.1-0.5,1.5c-2,1.4-4.1,2.8-6.1,4.2c-0.1,0.1-0.3,0.2-0.4,0.3c-0.8,0.5-1.6,0.9-2.5,0
		c-18.6,11.8-37.2,23.5-55.8,35.2c0.1,0.5,0.1,0.9,0.2,1.3c-0.9,0.6-1.8,1.1-2.6,1.7c-2.2,1.5-4.5,2.9-6.7,4.3
		c-0.4,0.2-0.8,0.5-1.2,0.7c-0.8,0.4-0.8,0.4-1.5-0.3c-0.2,0.1-0.4,0.2-0.6,0.3c-0.6,0.3-1.1,0.6-1.7,0.9c-1.8,0.9-3.6,0.7-5.3-0.3
		c-1.5-0.9-2.6-2.1-3.6-3.5c-0.3-0.5-0.4-0.9-0.3-1.5c1.1-5,2.1-10.1,3.1-15.1c1.5-7.4,3-14.8,4.6-22.1c0.1-0.3,0-0.6-0.1-0.9
		c-0.1-0.4-0.3-0.8-0.4-1.1c-0.2-1-0.7-1.8-1.3-2.6c-7.2-10.7-14.5-21.3-21.7-32c-0.4-0.6-0.8-0.8-1.5-0.8c-1.5,0.1-2.9-0.1-4.3-0.4
		c-1.7-0.4-3.2-1.2-4.4-2.4s-2.4-2.4-3.6-3.7c-0.3-0.3-0.7-0.6-1.1-1c-3.1,1.4-6.2,2.7-9.3,4.1c-0.3-0.3-0.6-0.5-1-0.8
		c-0.6,0.3-1.3,0.6-1.9,0.9c-0.9,0.4-1.7,0.8-2.6,1.1c-1.1,0.4-1.8,0-2.1-1.1c-0.1-0.5-0.2-1.1-0.2-1.6c0.1-3.9,0.2-7.7,0.3-11.6
		c0.1-3.4,0.1-6.8,0.2-10.3c0-0.5-0.1-0.9-0.5-1.3c-2.1-2.5-3.9-5.2-5.6-8c-3.3-5.4-6.6-10.9-9.8-16.4c-2.5-4.3-4.5-8.9-6.6-13.4
		c-1.3-2.8-0.9-5.3,0.3-7.9c1-2.2,2.6-4.1,4.5-5.6c3.9-3,8.2-5.1,13-6.2c9.9-2.2,19.8-4.4,29.7-6.5c8-1.7,16-3.2,24-4.8
		c7.5-1.5,15-3.1,22.5-4.7c0.1,0,0.2-0.1,0.4-0.1c0-0.6,0-1.2,0-1.7c-0.2-4.3-0.5-8.6-0.7-12.8c-0.2-4.5-0.5-9.1-0.7-13.6
		c-0.2-4.4,0.2-8.8,0.6-13.1c0.3-2.5,0.5-5,0.9-7.4c0.4-2.5,0.9-5,1.5-7.5c0.6-2.9,1.3-5.8,2-8.6c0.2-1,0.5-1.2,1.5-1.2
		c0.2,0,0.3,0,0.6,0.1c0.1-0.1,0.2-0.3,0.2-0.5c0.9-3.6,2.1-7.1,3.7-10.4c1.1-2.3,2.3-4.6,3.6-6.9c0.8-1.4,1.6-2.8,2.4-4.2
		c1.2-2,2.6-3.7,4.6-5c1.7-1.1,3.5-1.6,5.5-1.4c1.4,0.1,2.8,0.5,4.1,1c2.1,0.8,4.2,1.5,6.4,2.3c0.8,0.3,1.5,0.6,2.3,0.9
		c0.1,0.1,0.3,0.1,0.4,0.2c1.8,0.3,3.4,1.2,5.1,1.8c1.2,0.4,2.5,0.8,3.7,1.2c2,0.7,4,1.5,6,2.2c1.1,0.4,2.2,0.7,3.3,1.1
		c0.7,0.2,1.5,0.5,2.2,0.8c0.3,0.1,0.7,0.2,1,0.3c0.1,0,0.3,0,0.4,0.1c2.3,1.3,4.9,1.8,7.3,2.7c1.6,0.6,3.1,1.2,4.7,1.7
		c1.4,0.5,2.9,1,4.3,1.5c1.5,0.5,3,1,4.5,1.6c1.3,0.5,2.7,0.9,4,1.4c2.1,0.8,4.2,1.5,6.4,2.2c0.5,0.2,1,0.3,1.5,0.5
		c0.3,0.1,0.6,0.1,0.8,0.2c1.9,0.9,3.9,1.3,5.9,2c1.1,0.4,2.1,0.9,3.2,1.2c0.9,0.3,1.9,0.6,2.8,1c0.8,0.3,1.6,0.6,2.4,0.9
		c2.1,0.7,4.2,1.4,6.3,2.1c1.3,0.4,2.5,0.8,3.8,1.3c0.4,0.2,0.7,0.5,1.2,0.9c0.9,0.1,1.6,0.6,1.8,1.7c0,0.1,0.2,0.2,0.3,0.4
		c0.4,0.5,0.9,1,0.9,1.6c0.1,1.2,0.1,2.4,0,3.7c-0.1,1.1-0.4,2.3-0.8,3.4c-0.5,1.4-1.1,2.8-1.7,4.2c-0.8,1.9-1.7,3.8-2.6,5.6
		c-1.2,2.5-2.4,5-3.7,7.4c-2.7,4.9-4.8,10.2-7.2,15.2c-0.3,0.6-0.3,1.1-0.2,1.8c0.4,0.1,0.8,0.1,1.3,0.2c0.9,0.2,1.4,0.7,1.2,1.6
		c-0.1,0.7-0.4,1.4-0.7,2.1c-1.5,3.5-3.2,6.9-4.6,10.5c-2.5,5.9-4.9,11.8-7.2,17.8c-1.6,4.2-3.1,8.4-4.3,12.7
		c-2.3,8.3-4,16.7-5.9,25c-1.6,7.3-3.3,14.6-5,21.9c-2.9,12.5-5.7,25.1-8.6,37.6c-0.9,4-1.8,8-2.8,12c-0.3,1.3-0.8,2.4-1.6,3.4
		c-0.5,0.6-1,1.1-1.6,1.5C160.9,224.8,159.9,225.4,159,226L159,226z M174.3,154.7c-0.6,0.1-1.3,0.3-2,0.3s-1.3,0.2-1.9,0.4
		c-4.8,1.8-9.6,3.6-14.4,5.4c-18.1,6.8-36.2,13.7-54.3,20.5c-3.1,1.2-5.8,2.9-8.2,5.2c-2,1.9-3.2,4.3-3.8,7
		c-0.5,2.1-0.9,4.1-1.3,6.2c-2.2,10.4-4.3,20.7-6.5,31.1c-1.9,9.3-3.9,18.6-5.8,28c-0.8,3.7-1.5,7.4-2.3,11.1
		c-0.1,0.5-0.2,1.1,0.2,1.6c1,1.3,2.2,2.2,3.9,2.1c0.9,0,1.7-0.4,2.4-0.9c3.3-2,6.7-3.9,10-6c21.5-13.6,43-27.2,64.5-40.8
		c2.1-1.3,4.1-2.6,6.2-3.9c1.1-0.7,1.7-1.8,1.7-3.1c0-0.4,0-0.9,0.1-1.3c1.3-6.3,2.7-12.5,4-18.8c2.4-10.9,4.7-21.7,7.1-32.6
		c0.6-2.9,1.3-5.8,1.9-8.7c0.1-0.3,0.1-0.6-0.1-0.8C175.2,155.9,174.8,155.4,174.3,154.7L174.3,154.7z M96.7,74.5c0,0.3,0,0.4,0,0.6
		c0.3,5.6,0.7,11.2,1,16.8c0,0.6,0.2,1.1,0.6,1.5c0.7,0.8,1.4,1.5,2.1,2.2c0.1,0.1,0.3,0.2,0.4,0.3c0.3,0.2,0.6,0.3,0.8,0.5
		c2.8,2.7,5.7,5.4,8.5,8.2c1,1,2,2.1,2.9,3.2c2.5,3,5,6,7.4,9c1.9,2.3,3.8,4.6,6.2,6.6c2.9,2.4,5.9,4.7,9.1,6.8
		c0.9,0.6,1.8,1.1,2.8,1.6c2.7,1.3,5.5,2.5,8.2,3.7c2.4,1,4.8,1.9,7.1,3.1c5.7,2.9,11,6.3,16.4,9.6c0.2,0.1,0.4,0.2,0.4,0.4
		c0.1,0.5,0.5,0.6,0.8,0.8c1.4,0.9,2.8,1.7,4.2,2.6c0.2,0.1,0.4,0.2,0.8,0.4c0.3-0.9,0.6-1.8,0.8-2.7c1.3-6,2.6-12,3.8-18
		c0.1-0.5,0.1-1,0.2-1.6c-0.2,0.1-0.3,0.2-0.4,0.3c-0.8,0.8-1.4,0.9-2.3,0.3c-0.5-0.3-0.9-0.6-1.4-0.9c-1.8-1.4-3.5-2.9-4.9-4.6
		c-1.8-2.1-3.4-4.3-4.9-6.5c-0.8-1.1-1.5-2.2-2.4-3.3c-4-4.8-8.3-9.2-13.1-13c-5.4-4.3-11-8.3-17.2-11.3c-2.7-1.3-5.4-2.6-8.1-4
		c-5.2-2.7-10.7-5-16.2-6.9c-4.5-1.6-9-3.1-13.2-5.3C97.1,74.6,96.9,74.5,96.7,74.5L96.7,74.5z M79.1,227.7c0.1-0.5,0.2-0.7,0.2-1
		c0.3-1.3,0.5-2.6,0.8-3.9c1.6-8,3.2-16,4.8-24c0.6-3.1,1.2-6.2,2.2-9.2c0.4-1.2,1-2.3,1.8-3.4c1.4-1.9,3-3.7,4.9-5.1
		c0.3-0.2,0.6-0.5,1-0.8c0.2-0.1,0.4-0.2,0.5-0.3c-0.6-0.7-1.1-0.6-1.8-0.4c-3.5,1.4-7.1,2.6-10.7,4c-4.3,1.6-8.4,3.6-12.4,5.8
		c-1.5,0.8-2.9,1.7-4.4,2.5c-2.8,1.5-5.7,2.5-8.7,3.4c-0.3,0.1-0.7,0.2-1.1,0.4C63.9,206.3,71.5,216.9,79.1,227.7L79.1,227.7z
		 M37.2,185.8c-0.9-1.5-10.8-13.3-11.4-13.7c-0.2,1.2-0.5,18.3-0.3,19.1C29.3,189.4,33.3,187.6,37.2,185.8L37.2,185.8z"/>
</g>
</svg>
