<?xml version="1.0" encoding="utf-8"?>
<!-- Generator: Adobe Illustrator 28.0.0, SVG Export Plug-In . SVG Version: 6.00 Build 0)  -->
<svg version="1.1" id="Layer_2_00000127010378413981792640000007009583838381547702_"
	 xmlns="http://www.w3.org/2000/svg" xmlns:xlink="http://www.w3.org/1999/xlink" x="0px" y="0px" viewBox="0 0 117.2 327.4"
	 style="enable-background:new 0 0 117.2 327.4;" xml:space="preserve">
<style type="text/css">
	.st0{fill:#D6D6CB;}
</style>
<g id="Layer_1-2">
	<path class="st0" d="M0,282.8c0.1-0.2,0.2-0.3,0.3-0.5c0.2-0.7,0.3-1.5,0.6-2.1c1-2.2,2.1-4.4,3.2-6.5c0.9-1.8,2.3-3.2,3.8-4.5
		c0.8-0.7,1.6-1.4,2.3-2.2c1.4-1.4,3.1-2.3,5-2.7c0.9-0.2,1.8-0.4,2.7-0.2c0.5,0.1,1.2-0.3,1.7-0.1c0.6,0.3,1.3-0.2,1.9,0.3
		c0.1,0.1,0.2,0,0.4,0c0.1,0,0.1,0,0.2-0.1c0.1,0,0.3-0.1,0.4,0c0.4,0.7,1.2,0,1.7,0.5c0.1,0.1,0.4,0.2,0.5,0.2
		c0.6-0.3,0.9,0.1,1.2,0.4c0.3-0.1,0.6-0.1,0.9-0.2c0.1,0.2,0.3,0.5,0.4,0.6c0.4-0.1,0.7-0.1,1-0.2c0.2,0.2,0.4,0.4,0.6,0.7
		c0.3,0,0.6-0.1,0.9-0.1c0.2,0.2,0.3,0.5,0.5,0.7h1c0.1,0.2,0.3,0.5,0.5,0.7c0.3,0,0.6-0.1,1-0.1c0.2,0.3,0.3,0.5,0.5,0.8
		c0.6-0.1,1.3-0.1,1.4,0.8h1c0.2,0.3,0.3,0.6,0.5,0.9c0.5,0.1,1-0.3,1.3,0.5c0.6-1,1.1-1.9,1.7-2.7c3.1-5,6.1-9.9,9.2-14.9
		c0.2-0.3,0.4-0.6,0.6-0.8c1.1-0.9,1.9-2.1,2.7-3.3c0.7-1.1,1.4-2.3,2.1-3.4c0.7-1.1,0.7-2.4-0.4-3.4c-0.6-0.5-1-1.3-1.5-2
		c-0.4-0.7-1-1.1-1.4-1.9c-0.2-0.5-0.8-0.8-1.2-1.2c-0.1-0.1-0.2-0.3-0.3-0.4c-0.1-0.2-0.2-0.3-0.4-0.5c-0.1-0.1-0.2-0.1-0.3-0.2
		c-0.5-1-1.3-1.9-2-2.8c-0.5-0.8-0.8-1.7-1.2-2.5c-0.7-1.3-1.1-2.8-1.3-4.2c-0.4-2.1-0.3-4.2,0.4-6.2c0.6-1.7,1.3-3.4,2.2-5.1
		c1.2-2.3,2.9-4.1,4.9-5.6c1.2-0.9,2.4-1.9,3.8-2.4c0.5-0.2,1.1-0.4,1.8-0.7c0.6-31.5,1.2-63.1,2.4-94.7c-0.4-0.1-0.8-0.2-1.1-0.2
		c-0.7-0.2-0.9-0.4-1-1.2c-0.1-1.6-0.2-3.1-0.2-4.7c0-0.2,0-0.4,0.1-0.7c0.5-1.5,1.3-2.8,2.2-4.1c0.3-0.3,0.8-0.4,1.2-0.6
		c0.6-0.2,1.2-0.2,1.7-0.4c0.3-0.1,0.8-0.3,0.9-0.6c0.2-0.4,0.2-0.9,0.2-1.4c-0.1-0.8-0.3-1.5,0.1-2.2c0.1-0.2,0-0.4,0-0.7
		c0-1-0.1-2.1-0.1-3.1c-0.2-2.7-0.5-5.4-1.3-8c-0.3-1-0.5-2-0.9-2.9c-1-2.3-2-4.7-3-6.9c-1.1-2.4-2.4-4.8-3.6-7.2
		c-0.5-1-1-1.9-1.9-2.6c-0.4-0.3-0.6-0.9-0.7-1.4c-0.4-1.8-1.1-3.4-2.3-4.8c-0.9-1-1.6-2.2-1.7-3.7c0-1.1-0.2-2.2-0.5-3.2
		c-0.5-1.2-0.9-2.4-1.5-3.5c-0.1-0.2-0.4-0.5-0.6-0.5c-0.5-0.1-0.7-0.4-0.8-0.8c-0.9-1.6-1.3-3.3-1.8-5.1c-0.1-0.4-0.2-0.8-0.4-1.2
		c-0.9-2.7-1.4-5.5-1.9-8.3c-0.6-3.2-0.8-6.4-0.8-9.6c0-2.9,0.1-5.8,0.8-8.6c0.3-1.4,0.5-2.7,0.8-4.1c0.1-0.4,0.3-0.9,0.5-1.3
		c0.5-0.8,1-1.5,1.5-2.2c0.2-0.3,0.3-0.6,0.5-0.9s0.3-0.5,0.5-0.8c3.2-3.3,7.1-4.7,11.7-4c2.8,0.4,5.4,1.4,7.7,2.9
		c0.3,0.2,0.6,0.4,0.7,0.8C64.3,4,64.7,4.3,65,4.5c2,1.5,3.8,2.6,5.4,4c2.6,2.2,4.9,4.6,7.1,7.3c2.1,2.6,4.1,5.4,6.1,8.2
		c0.3,0.5,0.5,1,0.8,1.5c0.6,0.9,1.1,1.9,1.7,2.8c0.3,0.6,0.7,1.1,0.9,1.7c0.2,0.5,0.3,0.9,0.4,1.4c0.1,0.6,0.3,1,0.7,1.4
		c0.3,0.2,0.6,0.5,0.7,0.8c0.8,1.7,1.6,3.4,2.4,5c0.2,0.3,0.3,0.6,0.5,0.9c1.5,2.3,2.7,4.7,3.6,7.2c0.2,0.6,0.2,1.2,0.5,1.8
		c0.4,0.8,0.9,1.5,1.3,2.3c0.1,0.1,0.2,0.2,0.2,0.4c0.3,1.5,1.1,2.8,1.5,4.3c0.3,0.9,0.4,1.8,0.7,2.7c0.3,1.4,0.8,2.7,1,4.1
		c0.3,1.9,0.5,3.9,0.7,5.8c0,0.3-0.1,0.6-0.1,0.9c-0.1,0.3-0.2,0.7-0.2,1c0,1.3,0,2.6-0.1,3.8c0,0.8,0.3,1.4,0.8,2
		c0.6,0,1.1,0,1.7,0h0.1c0.5,0.7,1.5,0.9,1.5,2c0,0.5,0,1-0.1,1.5c-0.2,1.2-0.4,2.5-0.6,3.7c-0.1,0.6-0.3,1-0.8,1.4
		c-0.2,0.2-0.5,0.3-0.7,0.5c-0.1,0.1-0.2,0.3-0.3,0.5c-0.2,1.5-0.3,3-0.5,4.4c-0.6,5.1-1.2,10.3-1.8,15.4
		c-0.6,5.1-1.3,10.1-1.9,15.2c-0.5,3.9-0.9,7.7-1.4,11.6c-0.6,4.8-1.2,9.6-1.8,14.5c-0.5,4.2-1,8.4-1.5,12.6
		c-0.5,3.9-1,7.8-1.4,11.7c-0.4,3.7-0.8,7.4-1.2,11.1c-0.5,4.1-0.9,8.3-1.4,12.4c-0.4,3.6-0.8,7.2-1.2,10.9
		c-0.5,4.2-0.9,8.4-1.4,12.6c-0.2,1.3-0.3,2.7-0.5,4c-0.2,1,0.3,1.8,0.5,2.6c0.6,2,0.8,4,0.5,6c-0.2,1.6-0.5,3.1-0.8,4.7
		c-0.3,1.5-0.9,2.9-1.8,4.2c-0.3,0.4-0.5,0.9-0.5,1.4c0,0.7-0.1,1.4-0.2,2.1c0.6,0.2,1,0.1,1.2-0.4c0.1-0.1,0.1-0.3,0.2-0.4
		c0.2-0.3,0.5-0.3,0.7,0.1c0.1,0.2,0.2,0.5,0.2,0.8c-0.1,1.2-0.1,2.4-0.2,3.5c-0.2,2.6-0.4,5.3-0.5,7.9c-0.1,1,0.1,1.3,1,1.6
		c2.3,0.9,4.7,1.8,7,2.7c1.9,0.8,3.8,1.5,5.7,2.3c2.2,0.9,4.3,1.7,6.5,2.6c1.4,0.6,2.9,1.1,4.4,1.7c-0.1,0.1-0.1,0.2-0.2,0.4
		c0.1,0,0.2,0.1,0.2,0.1c1.4-0.4,2.4,0.5,3.6,0.9c1,0.4,1.9,1.1,2.5,2c0.6,0.8,0.7,1.8,0.7,2.8c-0.1,0.6-0.3,1.2-0.4,1.9
		c-0.1,0.7-0.5,1.4-0.8,2c-0.1,0.2-0.3,0.5-0.3,0.8c0,1-0.4,1.8-0.8,2.7c-0.2,0.4-0.2,0.9-0.3,1.3c-0.2,0.7-0.5,1.5-0.8,2.2
		c0,0.1-0.2,0.2-0.2,0.3c-0.2,2.2-1.3,4-1.9,6.1c-0.1,0.3-0.1,0.7-0.2,1c-0.2,0.4-0.4,0.8-0.6,1.1c-0.2,0.7-0.4,1.4-0.6,2.1
		c-0.1,0.2-0.2,0.4-0.3,0.6c-0.1,0.2-0.3,0.4-0.3,0.7c-0.2,0.5-0.2,1-0.5,1.5s-0.3,1.1-0.4,1.7s-0.3,1.1-0.8,1.4
		c0.3,0.4,0.2,0.8,0.1,1.2c-0.8,2.4-1.7,4.9-2.5,7.4c-0.8,2.3-1.6,4.6-2.3,7c-0.8,2.5-1.7,5.1-2.5,7.6c-0.4,1.2-0.8,2.4-1.4,3.5
		c-0.5,0.9-1.3,1.6-2.3,2c-1.8,0.7-3.4,0.2-5-0.5c-0.5-0.2-1-0.4-1.5-0.6c-0.2-0.1-0.3-0.2-0.5-0.3c-0.3-0.3-0.6-0.6-1-0.8
		c-2.2-1.1-4.4-2.1-6.5-3.2c-0.3-0.1-0.6-0.3-0.9-0.4c-2.9-1.4-5.9-2.7-8.8-4.1c-0.7-0.3-1.3-0.8-2-1.2c-1.6-0.8-3.2-1.5-4.8-2.2
		c-0.6-0.3-1.1-0.6-1.6-1c-1.3-0.9-2.5-1.7-4.2-1.7c-0.4,0-0.9-0.3-1.3-0.5c-0.2-0.1-0.2-0.4-0.3-0.6c-0.1-1.2-0.1-2.4-0.2-3.5
		c0-0.6-0.1-1.2-0.2-1.8c-0.1-0.3-0.4-0.6-0.7-0.9c-0.4-0.4-1-0.6-1.2-1.3c-0.1-0.2-0.6-0.5-0.9-0.5c-0.6,0.1-1.1-0.2-1.7-0.5
		c-0.2,0.3-0.3,0.5-0.4,0.8c-0.3,0.7-0.4,1.5-0.8,2.2c-0.3,0.8-0.8,1.5-1.2,2.2c-0.8,1.4-1.8,2.8-3,3.9c-0.3,0.3-0.5,0.7-0.8,1
		c-1.3,1.8-3,2.9-5.2,3.5c-1.2,0.3-2.5,0.4-3.8,0.4c-0.8,0-1.7-0.2-2.5-0.1c-0.4-0.4-0.9,0-1.3-0.2c-0.4-0.2-0.8-0.1-1.2-0.2
		c-0.6-0.1-1.2-0.4-1.8-0.6c-0.6-0.2-1.3-0.4-2-0.5c-0.2,0-0.3-0.2-0.5-0.2c-0.2-0.1-0.4-0.3-0.6-0.3c-0.4,0-0.7-0.1-1-0.4
		c-0.1-0.1-0.3-0.1-0.5-0.2s-0.5-0.2-0.7-0.3c-0.2-0.1-0.5-0.2-0.7-0.3c-0.2-0.1-0.4-0.2-0.6-0.3c-0.2-0.1-0.4-0.3-0.5-0.3
		c-0.4-0.1-0.8-0.2-1-0.5c-0.1-0.1-0.3-0.1-0.5-0.2s-0.5-0.2-0.7-0.4c-0.2-0.1-0.5-0.3-0.7-0.4s-0.4-0.2-0.6-0.4
		c-0.2-0.1-0.4-0.2-0.6-0.4c-0.2-0.1-0.5-0.3-0.8-0.5c-0.2-0.1-0.4-0.4-0.6-0.4c-0.4,0-0.6-0.2-0.8-0.5c-0.1-0.1-0.2-0.3-0.3-0.3
		c-0.6,0-0.8-0.5-1.2-0.7c-0.4-0.3-0.9-0.4-1.1-1c-0.1-0.1-0.3-0.1-0.5-0.2s-0.4-0.2-0.5-0.3c-0.1-0.3-0.4-0.4-0.7-0.5
		c-0.2,0-0.4-0.2-0.4-0.3c-0.1-0.6-0.5-0.8-0.9-0.9c-0.1,0-0.3-0.2-0.3-0.3c-0.1-0.5-0.4-0.7-0.8-0.8c-0.1,0-0.3-0.2-0.3-0.3
		c-0.1-0.5-0.3-0.7-0.8-0.8c-0.1,0-0.3-0.2-0.3-0.3c-0.1-0.5-0.4-0.6-0.8-0.8c-0.2-0.1-0.3-0.5-0.6-0.9C8.4,299.8,8,299.6,8,299
		v-0.1c-0.5-0.3-0.8-0.7-1.2-1.2c-0.2-0.3-0.7-0.5-0.8-1c-0.8-0.2-0.7-1.2-1.4-1.5c-0.1-0.7-0.8-1-1-1.7c-0.1-0.5-0.8-0.6-0.7-1.2
		c-0.8-0.7-0.9-1.8-1.4-2.6c-0.4-0.8-0.6-1.7-0.8-2.6c-0.2-0.7-0.3-1.5-0.4-2.2c0-0.1-0.2-0.1-0.3-0.1C0,283.7,0,283.3,0,282.8
		L0,282.8z M86.5,48.5c-0.1-0.3-0.1-0.7-0.2-0.9c-0.3-0.7-0.7-1.4-1.1-2.2c-1.1-2.3-2.2-4.7-3.4-7c-1.3-2.5-2.7-4.9-4.3-7.2
		c-1.3-1.9-2.6-3.9-4-5.7c-0.4-0.5-0.8-0.9-1.1-1.4c-0.3-0.4-0.6-0.8-1.2-0.9c-0.4,0-0.8-0.3-0.6-0.9c0.1-0.1,0-0.4-0.1-0.5
		c-0.3-0.4-0.6-0.8-0.9-1.1c-2-2.1-4.1-4.1-6.4-5.8c-1.1-0.8-2.3-1.6-3.5-2.3c-0.7-0.4-1.5-0.9-2.4-0.7c-0.1,0-0.2-0.1-0.3-0.1
		c-0.8-0.3-1.5-0.6-2.5-0.4c-0.7,0.2-1.5,0-2.2,0c-0.2,0-0.4,0.1-0.6,0.2c-1.2,0.5-1.8,1.6-2,2.8c-0.3,1.4-0.4,2.9-0.5,4.4
		c0,0.5,0,1.1,0,1.7s-0.1,1.2,0.1,1.8c0.2,0.6,0,1,0,1.6c0.1,0.9,0.1,1.8,0.2,2.6c0.2,2,0.4,3.9,1,5.8c0,0.2,0.1,0.3,0.1,0.5
		c0.3,1.4,0.5,2.8,0.8,4.1c0.3,1.2,0.8,2.3,1.3,3.5c0.2,0.6,0.4,1.2,0.6,1.8c0.3,0.9,0.7,1.8,1,2.8c0.1,0.3,0.3,0.7,0.4,1
		c0.2,0.7,0.3,1.4,0.6,2s0.5,1.4,1,1.9c0.9,0.8,1.2,2,1.7,3c0.4,0.8,0.8,1.6,1.2,2.3c0.3,0.5,0.7,1.1,0.9,1.6
		c1.2,2.5,2.5,5.1,3.7,7.7c1.1,2.2,2.2,4.3,3.1,6.6c1.3,2.9,2.4,5.9,3.2,9c0.5,2.1,1,4.3,1.4,6.5c0.5,2.3,0.6,4.8,0.7,7.2
		c0.1,1.6,0.4,3.2,0.2,4.8c0,0.3,0.2,0.8,0.4,1.1c0.1,0.2,0.4,0.4,0.6,0.6c1.5,1.6,1.6,3.6,1.4,5.5c-0.1,1.2-0.5,2.3-0.7,3.4
		c-0.1,0.6-0.2,1.1-0.7,1.5c-0.2,0.2-0.3,0.5-0.4,0.8c-0.1,1.1-0.2,2.1-0.2,3.2c0,0.6,0,1.2,0.1,1.8c0,0.3,0.2,0.7,0.5,0.7
		c0.5-0.1,1,0.1,1.4-0.4c0.3-0.3,0.6-0.5,0.9-0.8c3.9-3.6,7.8-7.1,11.6-10.7c0.8-0.7,1.5-1.4,2.2-2.1c0.4-0.3,0.5-0.8,0.5-1.2
		c0-0.9-0.1-1.8,0-2.7c0.4-4.6,0.9-9.1,1.3-13.7c0.1-0.8,0.1-1.5-0.2-2.3c-0.1-0.3-0.1-0.6,0-0.9c0.3-1.1,0.5-2.2,0.4-3.4
		c-0.1-0.6,0.2-0.9,0.8-1.1c0.3-0.1,0.7-0.2,1.1-0.4c0.2-1,0.5-2,0.6-3c0.2-2.2,0.3-4.5-0.1-6.7c-0.1-0.6-0.4-1.2-0.5-1.9
		c-0.2-0.7-0.3-1.5-0.5-2.2s-0.3-1.3-0.1-2c0.1-0.4,0.1-0.8-0.1-1.2c-0.5-1.4-1.1-2.8-1.7-4.2c-0.1-0.3-0.4-0.7-0.7-0.8
		c-0.6-0.1-0.8-0.5-1-1c-0.1-0.3-0.3-0.6-0.4-0.9c-0.3-0.7-0.7-1.3-1-2c-0.3-0.6-0.5-1.3-0.8-2C86.9,48.8,86.6,48.6,86.5,48.5
		L86.5,48.5z M68.9,183.4c0.1,0,0.1,0.1,0.2,0.1c0.8-1.1,1.7-2.1,2.5-3.2c3.7-4.9,7.3-9.9,11-14.8c1.4-1.9,1.4-1.9,1.6-4.3
		c0.1-1.6,0.2-3.1,0.4-4.6c0.2-1.2,0.5-2.3,0.6-3.5c0.4-5.3,0.9-10.6,1.4-15.9c0.2-1.8,0.3-3.6,0.5-5.4c0.3-3.7,0.7-7.4,1-11.1
		c0-0.2,0-0.4,0-0.7c-0.2,0.1-0.3,0.2-0.3,0.2c-3.7,3.7-7.2,7.7-11.1,11.2c-1.3,1.2-2.5,2.5-3.7,3.8c-0.8,0.9-1.6,1.6-1.6,3
		c-0.1,3.6-0.3,7.1-0.5,10.6c-0.2,3.2-0.4,6.3-0.6,9.5c-0.2,2.6-0.3,5.2-0.4,7.8c-0.1,2.1-0.2,4.2-0.4,6.2c-0.1,1.6-0.2,3.2-0.3,4.8
		C69.1,179.3,69,181.4,68.9,183.4L68.9,183.4z M80.6,289.1c-1.2,0-1.9,0.6-2.4,1.6c-1.1,2.3-2.1,4.7-3.1,7c-0.2,0.5-0.2,1.1,0.1,1.6
		c0.2,0.4,0.5,0.8,0.8,1.1c4.1,3.9,8.2,7.8,12.4,11.7c0.4,0.4,0.8,0.7,1.2,1c1,0.6,2,0.5,2.8-0.2c0.5-0.5,0.9-1,1.1-1.7
		c0.8-2.2,1.6-4.4,2.4-6.6s1.6-4.5,2.4-6.7c0.4-1.2,0-2.1-0.9-2.9c-0.3-0.3-0.8-0.5-1.2-0.7c-4.8-1.7-9.5-3.3-14.3-4.9
		C81.5,289.3,81.1,289.2,80.6,289.1L80.6,289.1z M47.8,279.4c0.3,0.1,0.5,0.2,0.8,0.2c0.1,0.3,0.1,0.6,0.2,0.9c0.5,0.2,1,0.3,1.1,1
		c0,0.1,0.3,0.2,0.5,0.3c0.1,0,0.2,0.1,0.2,0.1c0,0.3,0.1,0.6,0.1,0.9c0.3,0.2,0.5,0.3,0.8,0.4c0,0.5,0,1,0.6,1.1
		c0.1,0,0.2,0.2,0.2,0.4c0,0.4,0.1,0.7,0.5,0.8c0.1,0,0.2,0.2,0.2,0.3c0.2,0.6,0.4,1.2,0.7,1.9c0,0.1,0.2,0.1,0.4,0.2
		c0.2-1.1,1.1-40.2,1-40.9c-0.2,0.3-0.3,0.5-0.5,0.7c-4.7,7.9-9.4,15.7-14.2,23.5c-0.1,0.2-0.2,0.3-0.3,0.5c-0.2,0.5,0,0.8,0.5,0.9
		c0.2,0,0.4,0,0.7,0c0.1,0.3,0.3,0.7,0.4,1c0.3,0,0.6,0.1,0.9,0.1c0.1,0.3,0.2,0.6,0.4,1c0.3,0,0.6,0.1,0.9,0.2
		c0.1,0.3,0.2,0.6,0.3,1c0.3,0,0.7,0.1,0.9,0.1c0.1,0.3,0.2,0.6,0.4,0.9c0.3,0.1,0.6,0.1,0.9,0.2c0.1,0.4,0.2,0.7,0.3,1
		c0.3,0.1,0.6,0.2,0.9,0.3C47.7,278.8,47.7,279.1,47.8,279.4L47.8,279.4z M89.6,270.3c-2.2-0.1-2.5,0.1-3.3,1.8
		c-0.8,1.8-1.6,3.7-2.3,5.5c-0.5,1.3-0.2,2.1,1,2.7c4.7,2.3,9.3,4.6,14,6.9c1.6,0.8,3.4,0,3.9-1.6c0.3-1,0.8-2,1.1-3.1
		c1-2.8,1.9-5.5,2.9-8.3c0.2-0.7,0.1-1.2-0.4-1.7c-0.8-0.7-1.6-1.2-2.7-1.2s-2.2-0.1-3.3-0.2C96.8,270.9,93.1,270.6,89.6,270.3
		L89.6,270.3z M82.3,181.6c-0.1,0-0.1,0-0.2-0.1c-0.1,0.1-0.2,0.3-0.3,0.4c-4.5,6.5-8.9,13.1-13.4,19.6c-0.1,0.2-0.3,0.4-0.3,0.6
		c-0.1,1.5-0.2,3-0.3,4.5c0.8,0.3,1.5,0.5,2.2,0.8s1.3,0.5,2,0.9c0.6,0.4,1.5,0.3,1.9,1.1c0.7,0.1,1.2,0.8,2,0.8
		c0.3,0.8,1.3,0.7,1.7,1.5c0.2-0.1,0.3-0.2,0.3-0.3c0.7-1.2,1.5-2.4,2.2-3.7c0.1-0.2,0.2-0.5,0.2-0.7c0.3-3.9,0.6-7.8,1-11.6
		c0.3-3.4,0.6-6.9,0.9-10.3C82.1,183.9,82.2,182.8,82.3,181.6L82.3,181.6z M68.2,244.5c-0.9,1.5-1.7,3-2.6,4.5
		c-0.1,0.2-0.1,0.4-0.1,0.6c-0.1,1.1-0.1,2.3-0.2,3.4c0,0.5-0.2,1,0.4,1.4c0.1,0.1,0.1,0.3,0.1,0.5c-0.1,2.3-0.2,4.7-0.4,7
		c-0.2,3.9-0.4,7.8-0.7,11.8c0,0.2,0,0.5,0,0.7c0.3-0.2,0.4-0.5,0.6-0.7c1.7-3.4,3.4-6.9,5.2-10.2c2-3.8,3.2-7.8,4.3-11.9
		c0.1-0.4,0-0.7-0.3-1.1c-1.2-1.1-2.4-2.2-3.6-3.4C70,246.2,69.1,245.4,68.2,244.5L68.2,244.5z"/>
</g>
</svg>
