<?xml version="1.0" encoding="UTF-8"?>
<svg id="Layer_2" data-name="Layer 2" xmlns="http://www.w3.org/2000/svg" viewBox="0 0 471.42 863.08">
  <defs>
    <style>
      .cls-1 {
        stroke-width: 0px;
      }
    </style>
  </defs>
  <g id="Layer_1-2" data-name="Layer 1">
    <path class="cls-1" d="m376.18,101.83c2.36,5.54,2.14,5.9.62,11.22.15,1.18,1.27,1.83,1.53,3.03.45,2.07.19,4.05-.21,6.06-.1.49-.34.96-.53,1.43-.29.75-.35,1.51.14,2.19,1.45,2.04,1.23,4.35,1.05,6.63-.06.75-.37,1.49-.46,2.24-.18,1.52-.19,2.99.44,4.49.96,2.28,1.1,4.67.4,7.11-.43,1.49-.27,2.94.31,4.47,1.01,2.67,1.15,5.48.44,8.28-.21.83-.02,1.49.64,2.03.64.53.87,1.26.81,2.05-.09,1.14-.12,2.31-.43,3.4-.43,1.51-.31,3.04-.47,4.55-.03.25-.07.55.03.76.96,2.02.54,4.28,1.12,6.36.46,1.65.38,3.27-.26,4.87-.19.47-.27.98-.42,1.47-.19.64-.21,1.29.19,1.83.73.99.81,2.12.83,3.28.01.76.01,1.53,0,2.29-.01,1.53,0,3.04.69,4.49.32.67.37,1.48.52,2.23.2,1.02.23,2.06-.22,3-.6,1.25-.43,2.48-.13,3.73.09.37.22.73.34,1.1.55,1.76.62,3.52-.09,5.24-.41.99-.46,1.97-.26,2.99.1.5.06,1.03.2,1.51.58,2.01.67,3.99.06,6.02-.18.59-.18,1.3-.03,1.89.52,2.1.52,4.33,1.46,6.31.75,1.57,1.01,3.2.63,4.84-.41,1.76-.06,3.24.88,4.7.56.86.3,1.71-.31,2.46-.24.3-.57.55-.73.88-.28.56-.55,1.15-.67,1.76-.22,1.12-.35,2.26-.45,3.4-.04.49.03,1.02.18,1.49.44,1.46.94,2.91,1.43,4.36.26.75.22,1.48.03,2.24-.41,1.6-.75,3.22-1.1,4.75.26.72.49,1.31.69,1.91.98,2.85,1.19,5.72.34,8.64-.07.24-.13.49-.2.74-.18.64-.14,1.25.24,1.82,1.67,2.59,1.28,5.35.65,8.12-.17.74-.51,1.44-.73,2.06.05.36,0,.66.13.84,1.48,2.14,1.51,4.54,1.29,6.98-.08.89-.28,1.76-.4,2.65-.21,1.53-.21,3,.45,4.48.8,1.78.83,3.72.56,5.64-.12.88-.27,1.76-.44,2.64-.16.78-.08,1.5.22,2.24,1.38,3.45,1.46,6.94.3,10.46-.25.76-.22,1.5.12,2.22,1.24,2.65.95,5.47.86,8.26-.02.63-.19,1.26-.3,1.89-.15.91-.03,1.77.35,2.61.16.35.29.71.45,1.06,1.13,2.45,1.17,4.92.15,7.41-.24.58-.38,1.2-.56,1.78,1.8,3.82,1.83,7.69.69,11.6-.26.89-.31,1.72-.02,2.61.27.84.46,1.72.59,2.6.39,2.56.25,5.08-.65,7.46.45,1.15.92,2.2,1.26,3.29.84,2.73,1.12,5.48.02,8.24-.19.47-.23.99-.35,1.53.3.69.59,1.39.91,2.08,1.01,2.18,1.06,4.42.52,6.72-.29,1.23-1.06,2.41-.85,3.68.18,1.11.77,2.15,1.1,3.24.26.85.38,1.74.57,2.61.26,1.14.25,2.27-.08,3.4-.31,1.1-.62,2.2-.94,3.35.1.34.17.72.32,1.06,1.5,3.4,1.6,6.92.77,10.48-.22.94-.21,1.77.21,2.58,1.09,2.12,1.01,4.46,1.21,6.72.11,1.22-.2,2.58-.67,3.73-.73,1.81-.57,3.48.14,5.18,1.07,2.58.98,5.21.4,7.87-.14.64-.15,1.24,0,1.88.39,1.61.74,3.23,1.12,4.84.45,1.91.48,3.85-.19,5.66-.72,1.94-.42,3.64.21,5.53.55,1.66.7,3.5.75,5.26.03,1.11-.35,2.27-.76,3.32-.48,1.25-.56,2.41-.21,3.71.3,1.09.39,2.26.43,3.4.04,1.27-.03,2.53.49,3.73-.23,1.25-.5,2.49-.69,3.75-.07.49-.03,1.03.1,1.5.24.86.54,1.71.9,2.52.33.73.34,1.48.33,2.24-.01.63-.28,1.38-.03,1.87.79,1.53.45,2.99-.01,4.46-.32,1.03-.17,1.94.16,2.95,1.14,3.46,1.37,6.98.26,10.5-.47,1.51-.26,3.04-.11,4.55.05.47.32.97.63,1.35,1.5,1.85,1.78,3.87,1.08,6.11-.23.72-.31,1.49-.5,2.23-.54,2.16-.61,4.27.54,6.27.52.91.72,1.9.66,2.94-.08,1.52,0,3.06-.52,4.54-.39,1.11-.36,2.23-.03,3.38.49,1.7.41,3.53,1.25,5.18.27.52.17,1.25.19,1.88.02.64-.04,1.27-.02,1.91.04,1.77-.71,3.47-.3,5.3.36,1.6.48,3.27.56,4.91.09,1.77.39,3.54.09,5.33-.31,1.93-.03,3.8.98,5.53.45.77.71,1.63,1.12,2.43.37.72.98,1.17,1.83,1.16.51,0,1.03,0,1.52-.09,2.92-.53,5.84-.08,8.76.04.92.04,1.62.49,2.4.98,1.71,1.09,3.35,2.31,5.27,3.05.85.33,1.47.97,1.97,1.74.56.85,1.18,1.66,1.78,2.47,1,1.35,1.51,2.82,1.75,4.53.46,3.22-.23,6.05-2.08,8.66-.29.41-.54.86-.75,1.32-.26.58-.51,1.19-.29,1.84.33.96.19,2.03.77,2.93.66,1.03.58,2.21.44,3.34-.07.61-.28,1.24-.55,1.8-.39.8-.91,1.53-1.36,2.3-.78,1.33-.72,2.72-.02,4.02.78,1.46,1.65,2.88,2.59,4.24,1.08,1.57,2.29,3.05,3.44,4.57.92,1.22,1.89,2.41,2.72,3.69.4.62.74,1.39.78,2.12.1,1.77.25,3.58-.35,5.28-.45,1.27-.49,2.48-.14,3.75.5,1.77.37,3.49-.14,5.26-1,3.45-.89,3.5-2.84,6.14-.7.95-1.2,1.86-1.32,3.07-.18,1.8-.97,3.4-2.08,4.85-.79,1.03-1.69,1.9-2.8,2.56-1.09.65-2.17,1.34-3.24,2.03-.37.24-.59.87-.43,1.35.75,2.33.97,4.72.86,7.15-.01.25-.06.53.02.76.68,2.12.05,4.02-.94,5.87-.63,1.18-.68,2.41-.48,3.71.45,2.89.48,5.83,1.15,8.69.51,2.2.21,4.31-1.01,6.25-.14.22-.23.46-.37.67-.92,1.47-1.22,3.06-.92,4.76.23,1.27.23,2.5-.06,3.78-.19.84-.2,1.81,0,2.65.59,2.33.06,4.56-.36,6.81-.12.62-.35,1.23-.52,1.84-.42,1.51-.35,2.96.08,4.5.59,2.07,1.03,4.2,1.29,6.34.28,2.31-.31,4.57-1.16,6.71-.76,1.9-1.75,3.68-3.09,5.25-.56.65-.59,1.34-.31,2.13,1.1,3.13,2.09,6.28,2.68,9.55.11.63.25,1.25.35,1.88.97,6.17,1.75,12.36,2.42,18.57.37,3.42.72,6.85,1.15,10.26.58,4.61.39,9.15-1,13.61-.04.12-.08.24-.11.37-.48,1.9.34,3.49,2.2,4.29,1.55.67,3.16.93,4.85.77,1.14-.11,2.28-.22,3.42-.2,1.91.03,3.82.18,5.65.83,2.06.74,4.24.95,6.38,1.12,5.59.44,11.12,1.35,16.68,2.01,1.64.2,3.27.56,4.88.92,1.47.33,3.03.51,4.13,1.77.14.17.46.24.7.25,1.44.05,1.94,1.08,2.25,2.22.71,2.61.77,5.31.75,7.97-.03,3.43-.35,6.86-.57,10.3-.02.38-.08.78-.24,1.11-.56,1.19-.64,2.44-.74,3.72-.06.75-.32,1.49-.52,2.22-.51,1.83-1.64,3.03-3.39,3.86-2.9,1.37-8.75,3.85-12.81,4.91-.73.19-1.45.48-2.14.81-.7.33-1.37.71-2.16.68-1.12-.05-1.93.51-2.67,1.26-.63.63-1.26,1.28-2.15,1.55-1.97.59-3.74,1.6-5.51,2.6-.66.38-1.39.64-2.09.94-.94.4-1.94.69-2.8,1.22-2.3,1.4-4.76,2.42-7.31,3.23-.48.15-1.01.25-1.43.5-.98.58-1.83,1.45-2.87,1.82-.96.34-1.89.68-2.76,1.22-1.79,1.11-3.71,1.42-5.84,1.31-3.97-.21-7.83-1.02-11.71-1.73-8.77-1.59-17.53-3.28-26.29-4.93-.25-.05-.5-.1-.76-.12-4.84-.36-9.56-1.38-14.32-2.25-3.37-.61-6.8-.97-10.18-1.54-5.39-.92-10.75-2.08-16.17-2.82-6.95-.95-13.81-2.34-20.74-3.38-7.18-1.07-14.34-2.29-21.5-3.45-5.65-.92-11.33-1.75-16.95-2.83-6.13-1.18-12.3-2.16-18.45-3.2-6.91-1.17-13.82-2.32-20.73-3.51-8.29-1.43-16.55-2.96-24.85-4.31-6.92-1.13-13.78-2.56-20.74-3.42-5.05-.63-10.06-1.63-15.09-2.47-5.4-.91-10.8-1.83-16.2-2.75-8.54-1.45-17.08-2.91-25.62-4.36-6.41-1.09-12.81-2.2-19.22-3.23-8.43-1.35-16.85-2.75-25.24-4.29-7.52-1.38-15.04-2.73-22.58-4-5.65-.95-11.33-1.73-16.99-2.65-4.65-.75-9.29-1.6-13.93-2.39-2.88-.49-5.76-1.01-8.62-1.63-2.74-.6-5.49-1.14-8.26-1.57-4.27-.68-8.5-1.66-12.83-1.98-.88-.07-1.74-.39-2.61-.55-1.17-.2-1.74-.99-2.06-2.02-1.06-3.39-1-6.78.16-10.13.42-1.21.65-2.41.8-3.69.27-2.27.9-4.49,1.4-6.73.17-.76.57-1.41,1.13-1.96.54-.54,1.06-1.1,1.62-1.62.27-.25.6-.5.94-.6,1.2-.37,2.41-.68,3.62-.99.36-.09.81-.04,1.09-.23,1.45-.99,3.09-1.08,4.75-1.18,3.31-.21,6.61-.48,9.91-.72.64-.05,1.28-.16,1.91-.1,2.17.21,4.3.06,6.45-.25,2.14-.31,4.3-.4,6.42-.93,1.07-.27,2.27.06,3.38-.09.99-.14,1.93-.69,2.92-.82,1.13-.15,2.29-.03,3.52-.03,1.06-.87,2.25-1.58,3.62-1.96.38-.11.67-.89.5-1.3-1.51-3.54-1.29-7.24-1.01-10.93.42-5.46,1.04-10.91,1.83-16.33.35-2.39.7-4.79,1.13-7.17.96-5.36,3.03-10.24,6.44-14.52.55-.7,1.06-1.44,1.62-2.13.53-.65.65-1.37.47-2.15-.14-.62-.4-1.22-.51-1.84-.11-.62-.25-1.3-.1-1.89.51-2.1.36-4.34,1.41-6.31.25-.48.2-.95.13-1.47-.62-4.31-.59-5.08.97-8.92.55-1.37.84-2.65.41-4.07-.38-1.26-.25-2.52-.02-3.79.14-.75.32-1.5.43-2.25.22-1.54.72-2.96,1.86-4.07-.2-.95-.43-1.81-.54-2.68-.11-.88-.1-1.78-.11-2.67,0-.51-.03-1.04.09-1.52.35-1.35,1-2.66,1.09-4.02.09-1.36-.55-2.71-.62-4.13-.14-2.87.2-5.59,1.74-8.08.57-.91.71-1.83.37-2.91-.27-.83-.33-1.75-.32-2.63.02-.74.28-1.48.4-2.04-.23-.74-.7-.98-1.15-1.2-1.74-.88-2.62-2.35-2.92-4.22-.02-.13-.07-.25-.08-.37-.09-1.18-.56-2.15-1.29-3.1-1.37-1.79-1.44-3.77-.31-5.72.31-.54.81-.97,1.28-1.52-.04-.71-.15-1.46-.13-2.22.07-2.04.77-3.73,2.76-4.64.52-.24.88-.69.74-1.2-.81-2.9.13-5.24,2.14-7.3.17-.18.27-.42.48-.74,0-.9-.11-1.93.03-2.92.17-1.31-.08-2.15-1.49-2.61-1.14-.37-1.88-1.41-2.05-2.59-.16-1.07-.62-1.88-1.26-2.7-.95-1.2-1.02-2.59-.34-3.95.41-.82,1.03-1.5,2.08-1.37,1,.12,1.3-.46,1.56-1.26.29-.91.35-1.67-.36-2.46-.95-1.06-1.04-2.39-.36-3.57,1.11-1.94.9-3.89.37-5.86-.7-2.56-.12-4.76,1.68-6.66.35-.36.74-.7,1.17-.97.68-.44,1.04-1.05,1.35-1.78.66-1.59,1.77-2.77,3.44-3.37.36-.13.69-.33,1.01-.53.67-.42,1.11-1.01,1.32-1.79.53-1.97,1.11-3.92,1.62-5.89.12-.47.14-1.02.03-1.49-.79-3.22-.49-6.31,1.01-9.28.35-.7.45-1.42.29-2.22-.54-2.67-.41-5.32.25-7.96.19-.75.3-1.52.06-2.27-.99-3.07-.46-6.06.52-9,.37-1.13.56-2.22.17-3.36-.39-1.12-.32-2.24-.06-3.39.29-1.24.38-2.52.7-3.75.29-1.14.41-2.25.14-3.39-.09-.37-.13-.75-.2-1.13-.38-1.92-.33-3.8.39-5.64.33-.85.32-1.69.2-2.61-.38-2.79-.46-5.58.48-8.32.2-.58.2-1.25.21-1.88.01-.89-.02-1.79-.1-2.67-.25-2.71-.16-5.36,1.28-7.66-.14-.68-.28-1.17-.34-1.67-.25-2.04-.28-4.06.39-6.05.42-1.22.58-2.44.24-3.75-.25-.97-.2-2.02-.28-3.04-.14-1.67-.04-3.32.58-4.89.49-1.23.49-2.45.32-3.75-.33-2.54-.38-5.07.52-7.55.21-.56.18-1.27.09-1.87-.41-2.57-.11-5.07.55-7.56.16-.6.36-1.27.26-1.85-.47-2.83.03-5.59.49-8.36.15-.88.37-1.73.14-2.64-.57-2.3-.25-4.58.43-6.79.46-1.49.62-2.95.59-4.5-.04-2.29.35-4.59.2-6.86-.14-2.16-.23-4.32-.28-6.49-.03-1.54.02-3.05.74-4.48.35-.71.31-1.48.14-2.25-.58-2.54-.58-5.04.36-7.52.17-.44.09-.99.07-1.49-.06-1.27-.17-2.54-.22-3.81-.02-.5-.06-1.09.15-1.51,1.01-1.93.57-3.93.51-5.95-.07-2.41.17-4.84.3-7.25.07-1.39.33-2.78-.29-4.14-.14-.31-.04-.75,0-1.12.03-.25.1-.51.21-.73,1.34-2.72,1.47-5.59,1.27-8.57-.27-4.19-.31-8.4-.44-12.61-.02-.5-.02-1.02.09-1.5.26-1.13.36-2.25.38-3.41,0-1.01.17-2.03.38-3.02.41-2,.71-3.99.44-6.05-.15-1.13-.05-2.29-.05-3.44,0-.79.21-1.51.71-2.14.59-.74.73-1.54.6-2.5-.32-2.41-.19-4.8.13-7.23.3-2.26.23-4.58.18-6.87-.04-1.91-.25-3.79.48-5.66.31-.79.17-1.76.18-2.65,0-1.28.12-2.53.59-3.75.51-1.34.57-2.71.25-4.13-.16-.72-.16-1.54,0-2.27.59-2.65.08-5.35.46-8-.6-1.87-.65-3.73.05-5.58-.24-1.79.04-3.54.3-5.31.13-.86.06-1.8-.12-2.66-.19-.9,0-1.71.09-2.59.18-1.63.1-3.3-.05-4.94-.11-1.18-.09-2.26.4-3.35.44-.97.44-1.98-.02-2.97-.4-.87-.45-1.74.05-2.56,1.1-1.81,1.29-3.85,1.43-5.87.15-2.03-.07-4.08.3-6.1.06-.34-.1-.73-.17-1.1-.42-2.13-.6-4.28-.58-6.45,0-1.15.05-2.3.47-3.39.38-.98.39-1.97.3-3.01-.21-2.55-.2-5.09.66-7.56.2-.57.16-1.26.12-1.89-.19-2.69-.04-5.34.54-7.98.19-.85.27-1.79.13-2.64-.42-2.45-.18-4.84.53-7.18.38-1.25.47-2.47.43-3.76-.06-1.91-.13-3.83.28-5.72.14-.63.11-1.25-.01-1.89-.48-2.52-.31-5.08-.3-7.62,0-.62.08-1.3.34-1.86.67-1.47.57-2.91.38-4.47-.27-2.13-.36-4.32.55-6.4.19-.43.1-1,.07-1.5-.06-1.14-.2-2.28-.23-3.42-.02-.63-.06-1.34.19-1.89.82-1.83.74-3.64.43-5.57-.22-1.36.02-2.79.1-4.19.1-1.65.24-3.3.37-4.95.06-.77.02-1.53-.34-2.24-.32-.62-.21-1.23,0-1.85.12-.36.24-.73.39-1.08.98-2.27,1.22-4.57,1-7.07-.32-3.67-.18-7.39-.27-11.08-.05-1.9-.08-3.78.19-5.68.24-1.75.28-3.53.63-5.29.36-1.85.74-3.73.27-5.66-.21-.84-.06-1.78-.07-2.67,0-.91.16-1.78.73-2.52.58-.75.71-1.57.63-2.51-.2-2.67-.13-5.32.24-8,.31-2.25.12-4.58.03-6.87-.06-1.54-.16-3.03.4-4.52.26-.69.26-1.5.24-2.26-.03-1.67.11-3.31.73-4.88.47-1.22.63-2.43.16-3.73-.21-.57-.27-1.31-.1-1.88.63-2.13.42-4.3.47-6.45.03-1.39.2-2.79-.38-4.15-.18-.42-.13-1.04.04-1.49.46-1.23.48-2.48.4-3.76-.04-.63,0-1.29.14-1.9.38-1.65.43-3.27,0-4.92-.09-.35-.1-.8.03-1.12.8-1.87.25-3.78.12-5.65-.09-1.17-.15-2.26.34-3.35.44-.96.48-2,.07-2.98-.42-1.02-.42-1.94.14-2.92,1.04-1.82,1.25-3.85,1.39-5.88.04-.63.03-1.28,0-1.91-.06-1.8.09-3.56.63-5.29.32-.99.36-1.96-.11-2.97-.25-.54-.27-1.23-.25-1.85.03-.76.21-1.51.33-2.27.32-1.91.79-2.24,2.86-1.88.71.12,1.23,0,1.66-.57.23-.3.47-.66.78-.8,1.04-.46,2.11-.87,3.2-1.24.98-.33,2.13.12,2.63,1.04.23.42.46,1.01.34,1.43-.44,1.69-.37,3.52-1.57,5.04-.73.93-.71,2.17-.13,3.27.56,1.05.68,2.17.67,3.33,0,3.7-.01,7.39,0,11.09,0,1.3-.11,2.53-1.15,3.51-.48.45-.55,1.13-.54,1.78.01,1.41-.06,2.78-.8,4.07-.23.4-.25,1-.17,1.48.3,1.78.43,3.53.01,5.31-.11.48-.03,1.01,0,1.52.06,1.4-.04,2.72-.53,4.1-.45,1.28-.36,2.75-.51,4.14-.07.63,0,1.29-.21,1.87-.35,1.01-.28,1.98-.2,3.01.11,1.39.07,2.8.09,4.2.01.9-.1,1.78-.5,2.6-.23.46-.4.98-.15,1.46.76,1.43.64,2.96.65,4.49,0,.64-.04,1.28,0,1.91.03.5.03,1.08.29,1.47,1.08,1.67,1.03,3.67,1.68,5.46.31.86.05,1.49-.77,1.92-.92.49-1.71,1.09-2.42,1.84-.67.71-.97,1.48-.54,2.42.05.12.09.24.15.35,1.1,1.89,1.3,3.82.33,5.84-.46.96-.38,1.97-.21,3,.19,1.13.31,2.27.37,3.41.09,1.67-.04,3.3-.94,4.8-.41.67-.4,1.46-.16,2.23.15.49.36.97.42,1.47.21,1.65.33,3.31-.61,4.83-.71,1.15-.84,2.38-.61,3.68.07.37.09.76.09,1.14.04,2.04.14,4.08-.93,5.96-.32.57-.23,1.24.02,1.85.05.12.09.24.15.35,1.73,3.02,1.32,3.2.22,6.08-.14.36-.32.7-.44,1.06-.21.61-.29,1.24-.07,1.87.44,1.22.56,2.47.56,3.76,0,1.32-.23,2.49-1.16,3.52-.96,1.06-1.07,2.42-.27,3.54,1.09,1.53.99,3.11.65,4.74-.23,1.12-.64,2.2-1,3.4.23.65.45,1.38.74,2.08.66,1.6.61,3.26.34,4.89-.14.85-.67,1.63-1.07,2.55.72,2.24.91,4.63.57,7.06-.05.38,0,.82-.18,1.12-.96,1.67-.68,3.4-.48,5.19.2,1.78.11,3.57-.93,5.17-.58.9-.69,1.83-.33,2.91.98,2.88.89,5.77-.29,8.54,1.28,4.57,1.22,5.26-.86,9.94.97,5.7.95,6.36-.46,10.65.36,1.58,1.08,3.22,1.09,5.05,0,1.88-1.17,3.36-1.44,5.07.27,1.42.5,2.8.79,4.17.5,2.34.14,4.52-.99,6.62-.23.43-.43,1-.34,1.44,1.01,5.19.47,10.43.6,15.64.02.76,0,1.53-.03,2.29-.03.65-.18,1.28-.67,1.73-.71.66-.93,1.47-.97,2.4-.03.89-.05,1.79-.25,2.65-.17.73-.61,1.39-.96,2.16.48,1.94.78,3.91.2,5.97-.27.93.01,2.02.05,3.03.03.77-.12,1.46-.39,2.21-.38,1.06-.53,2.22-.64,3.35-.14,1.38.04,2.79-.52,4.14-.17.42.03.99.05,1.49.06,1.65.15,3.31.15,4.96,0,.62-.13,1.28-.36,1.85-.35.87-.53,1.68-.07,2.55.43.81.46,1.71.46,2.61,0,1.02-.03,2.04,0,3.06.01.5,0,1.08.22,1.49.98,1.7,1.09,3.65,1.65,5.47.29.94.09,1.5-.7,1.95-1.01.57-1.92,1.25-2.66,2.14-.54.65-.69,1.34-.32,2.12.11.23.19.48.32.7,1.03,1.79,1.11,3.59.2,5.47-.46.94-.46,1.98-.21,3,.37,1.51.26,3.04.28,4.57.01,1.16-.1,2.3-.71,3.32-.56.95-.54,1.93-.23,2.95.15.49.27.99.33,1.49.19,1.54.19,3.06-.63,4.46-.68,1.16-.79,2.39-.56,3.69.11.62.08,1.27.11,1.91.09,1.81-.05,3.56-1,5.17-.35.6-.27,1.22,0,1.83.05.12.1.24.16.35,1.57,2.78,1.59,3.06.09,6.43-.5,1.12-.59,2.11-.17,3.29.52,1.46.35,3.03.22,4.55-.04.48-.25,1.01-.55,1.38-1.27,1.56-1.6,3.14-.34,4.86.39.53.46,1.16.47,1.81.04,1.56-.36,3.03-.88,4.48-.32.88-.3,1.74.11,2.59.46.93.68,1.91.77,2.94.16,1.84-.2,3.54-1.27,5.1.91,2.36,1,4.76.69,7.19-.05.38,0,.83-.2,1.12-1.09,1.64-.74,3.36-.48,5.14.27,1.78.07,3.57-.95,5.15-.68,1.05-.61,2.14-.24,3.3.8,2.5.8,5-.11,7.5-.16.45-.24,1.06-.07,1.48,1.21,2.97.72,5.74-.82,8.42-.12.21-.15.48-.28.92.13.7.28,1.57.45,2.44.44,2.3.33,4.58-.53,6.76-.36.9-.4,1.71.01,2.57.11.23.19.48.25.72.52,2.15.65,4.28-.4,6.34-.54,1.06-.64,2.15-.26,3.33.69,2.15.35,4.32-.32,6.4-.52,1.61-.78,3.18-.5,4.87.39,2.31.15,4.56-.97,6.69-.22.42-.37,1.04-.23,1.47,1.12,3.32.47,6.54-.44,9.76-.03.11,0,.26.05.37,1.17,2.91.9,5.75-.48,8.49-.61,1.21-.64,2.37-.41,3.68.47,2.64.72,5.33-.06,7.96-.27.9-.34,1.67-.04,2.57.79,2.39.68,4.77-.36,7.09-.2.46-.36.94-.55,1.46,1.89,3.9,1.17,7.68-.61,11.28.15,1.13.26,2.14.42,3.15.34,2.06.17,4.06-.71,5.98-.44.96-.54,1.96-.22,2.98.07.24.1.5.17.75.5,1.76.54,3.5-.09,5.26-.26.71-.39,1.48-.5,2.24-.09.62-.11,1.26-.07,1.88.1,1.4.28,2.79.41,4.18.16,1.69-.05,3.29-1.06,4.74-.6.86-.84,1.89-.54,2.92.74,2.55.12,5.06-.1,7.58-.66,1.52-.3,2.97.2,4.44.19.54.5.87.98,1.06.35.14.73.22,1.1.33.5.16.91.43,1.08.97.32,1.03.98,1.78,1.93,2.27,1.4.72,2.43,1.8,3.29,3.11.48.74,1.12,1.38,1.69,2.07.62.74,1.34,1.08,2.35.79.94-.27,1.89.17,2.41.84,1.19,1.55,2.85,2.53,4.21,3.87.75.74,1.38,1.51,1.14,2.67-.11.52.06.98.28,1.46.29.62.25,1.31-.31,1.74-1.21.93-1.7,2.18-1.81,3.64-.05.63-.12,1.27-.2,1.9-.1.79-.46,1.44-1.08,1.96-.39.33-.79.65-1.14,1.02-.46.48-.7,1.09-.65,1.74.08,1.01.17,2.04.42,3.02.53,2.09.18,4.05-.66,5.96-.26.58-.6,1.12-.88,1.7-.34.71-.44,1.46-.32,2.24.07.5.12,1.02.26,1.51.51,1.84.05,3.56-.79,5.16-.7,1.35-1.4,2.74-2.62,3.73-1.45,1.18-2.01,2.54-1.14,4.35.68,1.42.67,2.98.62,4.51-.07,1.93-.4,3.8-1.61,5.47.12.76.22,1.5.36,2.24.42,2.18.08,4.29-.51,6.4-.48,1.69-1.37,2.96-2.85,3.88-1.31.81-2.62,1.58-4.2,1.73-.38.04-.75.15-1.11.27-.52.17-.86.53-.96,1.07-.17.87-.38,1.74-.46,2.62-.15,1.67-.6,3.25-1.24,4.78-.36.86-.45,1.73-.04,2.59,1.27,2.67,1.32,5.38.41,8.17-.23.7-.25,1.51-.18,2.26.22,2.29.19,4.56-.02,6.84-.06.63.04,1.34-.21,1.88-.74,1.59-.31,3.27-.54,4.9-.03.25-.06.53.03.76.52,1.32.88,2.6.41,4.07-.38,1.19.03,2.48-.39,3.76-.52,1.58-.24,3.31.02,4.93.3,1.84.07,3.53-.53,5.23-.34.95-.6,1.93-.92,2.94.57.75,1.14,1.44,1.64,2.17.79,1.16,1.52,2.35,2.28,3.52.5.78.76,1.59.55,2.54-.11.53.1,1.03.53,1.34.66.48,1.05,1.09,1.18,1.88.15.88.3,1.75.46,2.63.14.75.25,1.5.47,2.23.56,1.84.85,3.7.92,5.63.19,5.35.45,10.69.71,16.04.12,2.56-.22,5.08-.46,7.62-.12,1.3-.66,2.46-1.13,3.64-.43,1.1.14,2.67,1.32,3.24.67.33,1.44.67,2.16.65,2.71-.09,5.29.75,7.94.98.37.03.77.14,1.08.33.82.5,1.7.4,2.59.42,1.27.03,2.54.12,3.8.28,3.03.38,6.06.84,9.09,1.22,2.78.35,5.58.54,8.35.95,3.4.5,6.77,1.16,10.16,1.75.5.09,1,.25,1.5.25,4.1-.02,8.1.85,12.16,1.21,3.54.32,7.05,1.06,10.57,1.61.63.1,1.26.28,1.88.29,2.56.03,5.07.4,7.59.81,1.13.19,2.27.2,3.32.76.33.17.72.3,1.09.3,3.06-.01,6.08.56,9.13.61,1.39.02,2.78.29,4.17.48,6.05.85,12,2.3,18.11,2.73,1.14.08,2.27.33,3.4.53,2.01.35,4.01.75,6.01,1.09,1.76.3,3.52.49,5.32.34,1.39-.12,2.74.11,4.13.48,2.45.64,4.93,1.25,7.51,1.19,1.28-.03,2.54.07,3.76.56.35.14.75.24,1.12.21,2.31-.17,4.54.49,6.82.69,3.04.26,6.04.89,9.06,1.33,1.01.15,2.03.34,3.03.29,3.6-.16,7.1.49,10.63,1.02.75.11,1.5.29,2.26.37,2.78.32,5.58.56,8.36.93,4.8.64,9.58,1.39,14.38,2.03,6.69.89,13.4,1.67,20.09,2.58,3.15.43,6.29.87,9.4,1.64,2.56.63,5.13,1.36,7.86,1.26,1.48-.06,2.98.49,4.47.81,1.87.4,3.75.62,5.66.76,1.9.14,3.78.08,5.67.18,1.78.09,3.55.35,5.31.64,2.38.38,4.75.86,7.13,1.29.37.07.76.17,1.13.15,2.71-.19,5.32.47,7.97.8,2.52.31,5.06.57,7.59.79.61.05,1.27-.05,1.87-.23.31-.09.6-.46.75-.78.15-.33.17-.74.17-1.12-.03-2.17.02-4.34-.15-6.5-.29-3.82-.26-7.64-.26-11.47,0-5.86-.05-11.73.08-17.59.09-4.2.58-8.38,2-12.39.25-.71.27-1.5.5-2.22.94-2.84.91-2.58-.36-5.01-1.01-1.94-1.5-4.04-1.56-6.25-.06-2.3-.22-4.58.53-6.73-.35-.95-.67-1.79-.97-2.62-.88-2.41-1.23-4.94-1.52-7.46-.11-.99-.02-2.05.18-3.04.48-2.33.22-4.5-.68-6.71-1.07-2.62-1.54-5.39-1.29-8.23.09-1.01.31-2,.5-3,.14-.77.15-1.51-.13-2.25-.32-.83-.63-1.67-.93-2.51-1.03-2.93-1.41-5.94-1.18-9.03.04-.51.09-1.02.14-1.52.13-1.28,0-2.48-.47-3.73-1.08-2.92-1.16-6.03-.92-9.07.22-2.88-.09-5.57-1.16-8.22-.28-.7-.36-1.49-.62-2.21-.68-1.86-.71-3.73-.25-5.64.18-.74.21-1.51.35-2.26.29-1.54.14-3.05-.31-4.54-.6-1.98-.66-4.02-.62-6.06.04-2.31.31-4.57,1.64-6.58.57-.87.71-1.85.59-2.93-.24-2.16-.19-4.32.77-6.36-.24-.37-.38-.74-.65-.97-1.31-1.14-2.01-2.61-2.33-4.28-.24-1.25-.37-2.52-.64-3.77-.27-1.24.14-2.25.87-3.19.16-.2.28-.43.47-.6,1.53-1.43,2.43-3.25,3.14-5.15.04-.74-.52-1.14-.83-1.68-.99-1.7-1.56-3.47-1.02-5.46.24-.89.42-1.1,1.63-1.17.94-.05,1.19.06,1.44-1.33.05-.25.05-.51.09-.76.1-.68.45-1.27,1.11-1.4,1.2-.23,2.1-.88,2.88-1.75.17-.19.34-.38.53-.54.87-.71,2.3-.91,2.6-2.11.27-1.08.05-2.27.09-3.42.03-1.01.12-2.03.17-3.01.39-.25.71-.45,1.06-.68.17-.98.21-1.99-.32-2.92-.98-1.73-1.22-3.62-1.17-5.54.05-2.04.19-4.07.35-6.1.07-.9.16-1.79-.11-2.65-.96-2.99-.79-6.04-.48-9.09.01-.13.03-.25.05-.38.12-1.01.4-2.03.33-3.03-.07-.99-.46-1.96-.76-2.92-1.01-3.26-.92-6.54-.24-9.83.21-1.04.2-2-.21-2.99-.29-.71-.54-1.43-.75-2.17-.6-2.1-.93-4.22-.35-6.4.29-1.1.39-2.26.58-3.42,0-.77-.53-1.38-.79-2.09-.25-.71-.45-1.47-.5-2.22-.14-2.16-.23-4.34.22-6.48.53-2.55.45-5.07-.16-7.57-.52-2.14-.7-4.26-.11-6.42.2-.73.18-1.52.29-2.27.11-.78.08-1.54-.26-2.25-1.16-2.4-1.14-4.94-.95-7.5.1-1.27.29-2.53.4-3.8.05-.63.17-1.32-.03-1.88-1.26-3.6-.97-7.31-.76-10.99.08-1.43.02-2.71-.53-4.08-.92-2.28-1.18-4.68-.51-7.12.07-.25.12-.5.17-.75.24-1.25.66-2.5.66-3.75,0-1.11-.47-2.23-.71-3.34-.53-2.51-.87-5.03-.17-7.56.21-.76.19-1.5-.07-2.25-.9-2.59-.97-5.23-.6-7.93.33-2.4.39-4.8-.05-7.23-.46-2.52-.31-5.08.04-7.62.13-.91.03-1.75-.31-2.61-1.21-3.03-1.42-6.19-1.18-9.4.09-1.16.04-2.25-.31-3.39-.68-2.22-.83-4.5-.43-6.81.11-.63.14-1.27.24-1.9.41-2.53.47-5.05.02-7.59-.31-1.76-.3-3.56-.03-5.33.19-1.28.12-2.54-.15-3.79-.83-3.89-1.25-7.8-.6-11.76.08-.49.06-1.03-.03-1.52-.63-3.29-.33-6.61-.2-9.91.06-1.54.03-3.03-.36-4.54-.52-1.99-.54-4.05-.25-6.08.25-1.8.21-3.53-.35-5.28-.8-2.47-.65-5.05-.49-7.59.09-1.54.13-3.01-.34-4.52-.68-2.23-.27-4.55-.2-6.84.02-.63.14-1.26.22-1.9.16-1.27.16-2.48-.14-3.77-.41-1.72-.51-3.52-.67-5.3-.06-.62,0-1.28.14-1.89.21-.91.05-1.72-.21-2.6-.72-2.46-1.1-4.97-.6-7.54.15-.75.16-1.52.26-2.28.1-.77.12-1.52-.17-2.26-.53-1.33-.61-2.74-.6-4.14.02-2.94-.35-5.83-1.16-8.66-.39-1.37-.29-2.78-.26-4.18.03-1.14.11-2.3.28-3.43.26-1.65.38-3.27-.14-4.91-.23-.71-.2-1.51-.22-2.27-.02-.89,0-1.78.04-2.68.05-1.53.3-3.07.15-4.58-.15-1.5-.68-2.96-1.07-4.43-.57-2.13-.63-4.29-.44-6.45.11-1.29.08-2.54-.31-3.77-.74-2.37-.76-4.77-.29-7.18.59-3.03.7-6.07.17-9.12-.29-1.65-.33-3.29.01-4.94.23-1.14.2-2.26-.07-3.41-.29-1.24-.47-2.5-.66-3.76-.33-2.14-.67-4.28-1.66-6.25-.45-.89-.39-1.76.11-2.55.86-1.36,1.02-2.85,1.04-4.4.04-2.8.17-5.61.17-8.41,0-1.14-.17-2.29-.42-3.4-.42-1.9-.56-3.79-.13-5.68.35-1.53.25-2.98-.21-4.51-.94-3.09-1.09-6.26-.54-9.45.08-.49.18-1.06.02-1.5-1.08-2.98-.77-6.03-.54-9.08.06-.76.13-1.53.13-2.29,0-.89,0-1.78-.13-2.65-.41-2.77-.95-5.53-.52-8.36.06-.36.01-.78-.12-1.13-1.11-2.96-1.04-6.01-.66-9.06.21-1.67.08-3.25-.27-4.88-.58-2.76-.68-5.55-.11-8.34.1-.49.26-1.04.14-1.5-.68-2.64-.33-5.33-.44-7.99-.09-2.18-.19-4.31-.93-6.39-.25-.69-.23-1.49-.24-2.25-.03-2.06.45-4.05.87-6.04.27-1.29.31-2.5-.4-3.69-.25-.41-.28-.96-.38-1.46-.1-.5,0-1.1-.24-1.49-1.02-1.61-.95-3.06.24-4.55.27-.34.25-.97.22-1.46-.04-.76-.11-1.55-.35-2.26-.71-2.12-.52-4.29-.49-6.45,0-.61.16-1.29.47-1.81.49-.85.54-1.59.13-2.51-.93-2.12-1.16-4.41-1.46-6.67-.08-.6.07-1.29.31-1.85.56-1.26.46-2.46-.01-3.7-.6-1.58-.76-3.23-.44-4.89.21-1.08-.11-2-.57-2.93-.69-1.36-1.35-2.73-2.04-4.1-.55-1.09-.61-2.16-.07-3.29.55-1.15.95-2.36,1.5-3.5.54-1.1.62-2.25.33-3.36-.7-2.66-.67-5.27.02-7.92.25-.98.15-2.02-.16-3.02-.6-2-.36-4.05-.28-6.08.03-.73.39-1.46.69-2.15.47-1.11.69-2.31.22-3.35-1.37-3.06-.91-6.24-.94-9.51,1.58-1.42,3.12-2.92,4.78-4.28,1.51-1.23,3.27-1.35,5.04-.59.85.37,1.46,1.03,1.45,2.06-.01,2.07-.39,4.05-1.38,5.89-.3.55-.62,1.1-.86,1.54-.1.89.49,1.26.88,1.73,1.24,1.5,1.5,3.19.98,5.03-.17.61-.31,1.25-.59,1.81-.74,1.46-.84,2.84-.1,4.38.66,1.36.3,3.06,1.28,4.35.02.88.14,1.78.04,2.65-.09.74-.42,1.44-.68,2.25.48,1.14.99,2.3,1.46,3.48.82,2.07,1.16,4.18.24,6.31-.33.76-.3,1.48-.09,2.23.24.86.49,1.72.73,2.58.45,1.66.39,3.28-.35,4.85-.16.35-.34.69-.51,1.03-.74,1.48-.87,2.9.28,4.28.78.94,1.04,2.06.68,3.23-.47,1.49-.37,3.03-.46,4.55-.04.62.05,1.28.23,1.88.37,1.21.75,2.45,1.31,3.58.84,1.69,1.1,3.44.59,5.19-.39,1.35-.25,2.48.51,3.6.21.31.36.68.49,1.03.24.63.17,1.25-.19,1.83-.13.21-.29.43-.47.6-1.03.92-1.35,2.08-1.35,3.42,0,.76-.07,1.55-.33,2.26-.43,1.19-.31,2.24.33,3.29.26.43.45.92.71,1.35.86,1.4.92,2.82.43,4.4-.49,1.57-.73,3.21-1.05,4.65ZM90.02,738.64s-.04,0-.06,0c-.08-2.67-.08-5.34-.27-8-.19-2.66-.55-5.31-.92-7.95-.14-1-.46-1.98-.81-2.94-.3-.83-.73-1.62-1.14-2.4-.34-.66-1.04-.91-1.57-.53-1.37.97-2.92,1.51-4.49,2.05-2.27.78-4.49.68-6.68-.23-1.05-.44-2.11-.88-3.15-1.34-.64-.28-1.24-.1-1.83.15-.61.26-1.09.68-1.35,1.28-.4.93-.79,1.87-1.11,2.83-1.15,3.39-1.6,6.93-2.11,10.45-.5,3.39-.87,6.81-1.28,10.21-.33,2.78-.62,5.56-.43,8.37.04.63.13,1.28.59,1.77.25.27.54.54.97.46.25-.05.5-.09.73-.19,1.51-.7,3.03-1.22,4.77-1.07.86.08,1.75-.23,2.63-.38.87-.15,1.74-.41,2.62-.47,3.55-.26,7.1-.47,10.65-.7.51-.03,1.02-.03,1.52-.11,2.6-.4,2.81-1.12,2.84-3.24.04-2.67-.07-5.34-.11-8.01Zm306.52-24.5c-.02.35-.03.73-.05,1.11-.11,1.69.1,3.27,1.07,4.74.47.72.66,1.64.92,2.48.18.6.21,1.26.44,1.84.12.31.48.59.8.75,1.26.62,3.33,0,3.07-2.03-.07-.5-.05-1.02-.11-1.52-.35-2.69-.19-5.31.71-7.9.55-1.58.59-3.21.28-4.89-.57-3.14-.71-6.31-.1-9.48.1-.5.12-1.01.18-1.52.24-2.03.54-4.03,1.63-5.83.48-.79.49-1.7.3-2.6-.13-.62-.22-1.26-.39-1.87-.48-1.74-.5-3.5-.44-5.3.11-2.94.44-5.84,1.05-8.71.16-.76.14-1.49,0-2.26-.53-2.74-1.56-5.38-1.56-8.22,0-.36-.19-.75-.39-1.06-.34-.53-.78-1.01-1.14-1.53-.72-1.03-1.72-1.52-2.94-1.44-2.33.17-4.56-.27-6.75-.99-.24-.08-.49-.11-.74-.15-.52-.09-1.28.59-1.28,1.17,0,.51.04,1.01.06,1.52.09,2.28.25,4.57.25,6.85,0,.91-.02,1.77.42,2.58,1.58,2.92,1.71,6.07,1.49,9.28-.04.63-.17,1.26-.26,1.88-.26,1.78-.23,3.55.36,5.27.51,1.46.68,2.96.75,4.5.06,1.52.14,3.05.33,4.56.2,1.53.27,3.03-.03,4.55-.28,1.42,0,2.77.67,4.06.35.67.69,1.4.79,2.14.36,2.64,1.03,5.25.64,7.98Zm14.26,75.27c.37-1.85.16-3.36,0-4.87-.7-6.31-1.37-12.63-2.14-18.94-.52-4.29-1.1-8.57-2.15-12.78-.18-.74-.38-1.47-.62-2.19-.37-1.11-.97-1.45-2-1.22-.12.03-.25.04-.37.09-2.1.81-4.17,1.03-6.26-.09-.25-.13-.74.05-1.06.21-.59.28-1.01.76-1.17,1.42-.42,1.73-.82,3.46-.86,5.26-.08,3.68-.27,7.37-.24,11.05.07,7.12.26,14.24.43,21.35.02.88.17,1.76.38,2.61.07.29.5.53.82.69.2.1.5.05.75.02,2.02-.25,4.01-.55,6.06-.05.99.24,2.02-.05,2.98-.43,1.77-.7,3.54-1.38,5.46-2.13Z"/>
  </g>
</svg>