<?xml version="1.0" encoding="utf-8"?>
<!-- Generator: Adobe Illustrator 28.0.0, SVG Export Plug-In . SVG Version: 6.00 Build 0)  -->
<svg version="1.1" id="Layer_2_00000091012231687588309540000003587649273819714975_"
	 xmlns="http://www.w3.org/2000/svg" xmlns:xlink="http://www.w3.org/1999/xlink" x="0px" y="0px" viewBox="0 0 408.9 174"
	 style="enable-background:new 0 0 408.9 174;" xml:space="preserve">
<style type="text/css">
	.st0{fill:#D6D6CB;}
</style>
<g id="Layer_1-2">
	<g>
		<g>
			<path class="st0" d="M57,5.5V4.6h16.1l17,19.3L73.9,9.7l-0.7,8.5c-0.8,9.9-1.1,17.7-1.2,25.5c0.1-11.9-1.2-22.8-1.8-26.1
				C69.1,11.5,67.6,7.6,57,5.5L57,5.5z M59.1,83.6v-1c1.2-0.3,9.2-1.7,10.3-5.3c1.6-5.4,2.5-18.4,2.6-30.9c0,12,0.7,24,2.2,30.9
				c0.9,4.1,8.7,5.1,10.9,5.4v0.9H59.1z M72,46.4v-2.7V46.4z M109.3,40.9l0.1,2.8v2.6L90.2,23.9L109.3,40.9L109.3,40.9z M107.2,14.3
				c-1-5.9-5.2-6.9-11.1-8.7v-1H121v0.9c-2.3,0.3-8.8,2.4-9.9,8.8c-0.3,1.8-1.7,15.1-1.6,29.2C109.3,32.4,108.3,21.2,107.2,14.3
				L107.2,14.3z M109.5,46.3c0.1,13,0.8,26.1,2.4,31c1.1,3.6,9,5,10.3,5.3v1h-26v-0.9c2.2-0.3,9.9-1.3,10.9-5.4
				C108.6,71.2,109.5,58.9,109.5,46.3z M109.5,46.3v-2.6l0.1,2.7L109.5,46.3L109.5,46.3z"/>
			<path class="st0" d="M134.2,11c-0.8-4.1-8.8-5.1-11.1-5.4v-1H149v1c-1.2,0.3-9,1.9-10.5,5.3c-1,2.5-2.4,13.9-2.5,26.8
				C136.1,26.8,135.3,16.5,134.2,11z M123.8,83.6v-1c1.2-0.3,9-1.8,10.3-5.3c1.1-3.2,2.1-19.7,2.1-35.8c0,13.9,1.5,28.7,2.6,35.8
				c0.7,4.2,8.7,5.1,10.9,5.4v0.9H123.8z M136.2,41.5v-3.7V41.5z"/>
			<path class="st0" d="M208.9,3.2c4.3,0.8,8.9,1.8,13,2.9v24.1h-0.8c0-9.7-0.3-17.5-4.6-21.9C214.6,6.4,211.9,4.6,208.9,3.2
				c-4.4-2-9.7-3.3-15.2-3.2c-4.7,0-10,1.4-15.1,3.7c-10.6,5.1-20.4,14.9-23.5,28.4h75V33l-2.4,0.8c-4.6,1.6-5.5,6.7-5.5,11.7
				l0.1,29.5c1.9-0.8,5.5-3.2,6.6-3.8l0.2,0.3c-5.4,4.4-13,8.7-21.3,10.9c5.6-3.3,9.9-8.2,9.9-12.9V46.8c0-10.3-2.9-13-10-13
				l-52.9-0.5c-0.4,2.4-0.7,5-0.7,7.6c0,19.4,11.9,35.4,27.1,42c-20.1-4.3-33.8-18.2-33.8-39.7s12.3-34.5,31.1-39.5
				c5.1-1.3,10.6-2,16.6-2C198.8,1.7,203.7,2.3,208.9,3.2L208.9,3.2z M196,86c3.9,0,8.2-1.3,12-3.6c-4.2,1.2-8.7,1.9-13.1,1.9
				c-4.7,0-9.4-0.4-13.5-1.3C185.9,84.9,190.9,86,196,86L196,86z"/>
			<path class="st0" d="M239.5,11c-0.8-4.1-8.8-5.1-11.1-5.4v-1h25.9v1c-1.2,0.3-9,1.9-10.5,5.3c-1,2.5-2.4,13.9-2.5,26.8v3.7v-3.7
				C241.3,26.8,240.5,16.5,239.5,11z M229,83.6v-1c1.2-0.3,9-1.8,10.3-5.3c1.1-3.2,2.1-19.7,2.1-35.8c0,13.9,1.5,28.7,2.6,35.8
				c0.7,4.2,8.7,5.1,10.9,5.4v0.9H229L229,83.6z M243.6,36l17.4,1.2l19.5-1.1l-19.4-0.6L243.6,36L243.6,36z M279.9,11
				c-0.8-4.1-8.8-5.1-11.1-5.4v-1h26v1c-1.2,0.3-9,1.9-10.5,5.3c-1,2.5-2.4,13.9-2.5,26.8v3.7v-3.7C281.7,26.8,280.9,16.5,279.9,11z
				 M269.4,83.6v-1c1.2-0.3,9-1.8,10.3-5.3c1.1-3.2,2.1-19.7,2.1-35.8c0,13.9,1.5,28.7,2.6,35.8c0.7,4.2,8.7,5.1,10.9,5.4v0.9H269.4
				z"/>
			<path class="st0" d="M336.6,7.2H326c-0.5,4-2.6,16.6-2.7,30c-0.1-12.2-1.6-23.9-1.7-30h-10.9c-7.6,0-10.3,2.3-12.4,8.1l-2.3,6.1
				l-0.7-0.1l4.1-20.2h0.9l-0.2,3C315.6,8,331.2,8.3,346.9,4V1.2h1.2l3.8,20.1l-0.7,0.1l-2.3-6.1C346.8,9.5,344.1,7.2,336.6,7.2
				L336.6,7.2z M311.1,83.6v-1c1.2-0.3,9-1.8,10.3-5.3c1.1-3.2,1.9-20.7,1.9-37.8c0,15,1.7,30.7,2.8,37.8c0.7,4.2,8.7,5.1,10.9,5.4
				v0.9H311.1z M323.3,39.5v-2.3V39.5z"/>
		</g>
		<g>
			<path class="st0" d="M0.8,147.4c0.2,5.1,3.6,19,13.3,24.4c-5.8-1.5-10-4.4-12.1-5.8l-2-18.4L0.8,147.4L0.8,147.4z M34.9,93.5
				c3.7,0.9,7.1,2.4,10.6,4.3l-1.4,18.8l-0.8-0.1C43.9,108.6,42.4,98,34.9,93.5c-2.1-1.2-4.9-2-8.2-2c-7.2,0-12.5,2-15.6,5.5
				c-2,2.5-3.2,5.6-3.2,9.4c0,8.6,12,12.9,17.6,15.2c16.2,7,22.8,13.2,22.8,26.1c0,4.5-1.7,9.7-5.1,14.2c1.7-3.3,2.7-7,2.7-10.9
				c0-13.3-10.6-19.1-21.2-23.5c-8-3.3-22-6.8-22-18.1c0-3.8,2.6-8.8,8.4-12.4c4.1-2.5,9.7-4.2,17.1-4.2
				C30.6,92.8,32.8,93,34.9,93.5L34.9,93.5z M22.8,174.1c8.9,0,16.6-5,20.4-12.2c-4.5,6.1-12.1,10.8-22.1,10.8c-2.5,0-4.9-0.3-7-0.9
				C16.6,173.3,19.5,174.1,22.8,174.1z"/>
			<path class="st0" d="M106.9,171c3.4-2,6.8-4.7,9.2-7.6c3.6-3.9,5.5-10.4,8-16.7l0.8,0.2l-6,19.9
				C118.3,167.5,113.8,169.8,106.9,171c-2.8,0.5-6.1,0.8-9.7,0.8c-5.9,0-11.4-0.8-16.4-2.1c-17-4.9-28.5-17.8-28.5-37
				c0-16.9,8.8-29.1,21.7-35.1c-8.6,6.2-15.3,17.3-15.3,32.9c0,17.3,9.4,32.2,22.2,39.1c5.1,2.7,10.6,4.3,16.4,4.3
				C100.3,173.9,103.7,172.8,106.9,171L106.9,171z M94.4,93.3c3.2,0,7.3,0.5,11.7,1.2c4.5,0.8,9.4,1.8,13.7,2.9v22.9H119
				c0-9.2-0.3-16.6-4.4-20.8c-2-2-5-3.7-8.5-5.1c-4.6-1.8-10-2.9-15-2.8c-5.6,0-11.7,1.9-17.2,5.9C80.1,94.7,87.1,93.2,94.4,93.3
				L94.4,93.3z"/>
			<path class="st0" d="M134.3,99.6c-0.8-4.1-8.8-5.1-11.1-5.4v-0.9h25.9v1c-1.2,0.3-9,1.9-10.5,5.3c-1,2.5-2.4,13.9-2.5,26.8v3.7
				v-3.7C136.1,115.4,135.3,105.1,134.3,99.6z M123.8,172.2v-1c1.2-0.3,9-1.8,10.3-5.3c1.1-3.2,2.1-19.7,2.1-35.8
				c0,13.9,1.5,28.7,2.6,35.8c0.7,4.2,8.7,5.1,10.9,5.4v0.9C149.8,172.2,123.8,172.2,123.8,172.2z M138.5,124.6l17.4,1.2l19.5-1.1
				l-19.4-0.6L138.5,124.6L138.5,124.6z M174.7,99.6c-0.8-4.1-8.8-5.1-11.1-5.4v-0.9h25.9v1c-1.2,0.3-9,1.9-10.5,5.3
				c-1,2.5-2.4,13.9-2.5,26.8v3.7v-3.7C176.5,115.4,175.7,105.1,174.7,99.6z M164.2,172.2v-1c1.2-0.3,9-1.8,10.3-5.3
				c1.1-3.2,2.1-19.7,2.1-35.8c0,13.9,1.5,28.7,2.6,35.8c0.7,4.2,8.7,5.1,10.9,5.4v0.9L164.2,172.2L164.2,172.2z"/>
			<path class="st0" d="M243.2,96.9c14,5.8,24.3,19.6,24.3,36.4c0,14.4-8.7,27.5-21,34.3c9.5-7.4,14.7-20.5,14.7-34.3
				C261.1,117.7,254.8,103.4,243.2,96.9c-4.3-2.5-9.4-3.8-15-3.8c-5.2,0-9.8,1.1-13.9,3.2c-12.3,6.3-19.1,21-19.1,37.1
				c0,14.2,5.5,27.9,15.7,35.1c-13.2-6.5-22-20.1-22-35.1c0-17.4,10.4-31.6,25.4-37.1c4.3-1.6,9-2.4,13.9-2.4
				C233.3,93.8,238.4,94.8,243.2,96.9L243.2,96.9z M228.2,173.7c7.2,0,13.3-2.2,18.3-6.1c-5.5,3-11.7,4.7-18.3,4.7
				c-6.2,0-12.1-1.5-17.3-3.9C215.6,171.8,221.5,173.7,228.2,173.7L228.2,173.7z"/>
			<path class="st0" d="M326,96.9c14,5.8,24.3,19.6,24.3,36.4c0,14.4-8.7,27.5-21,34.3c9.5-7.4,14.7-20.5,14.7-34.3
				C344,117.7,337.7,103.4,326,96.9c-4.3-2.5-9.4-3.8-15-3.8c-5.2,0-9.8,1.1-13.9,3.2c-12.3,6.3-19.1,21-19.1,37.1
				c0,14.2,5.5,27.9,15.7,35.1c-13.2-6.5-22-20.1-22-35.1c0-17.4,10.4-31.6,25.4-37.1c4.3-1.6,9-2.4,13.9-2.4
				C316.2,93.8,321.3,94.8,326,96.9L326,96.9z M311,173.7c7.2,0,13.3-2.2,18.3-6.1c-5.5,3-11.7,4.7-18.3,4.7
				c-6.2,0-12.1-1.5-17.3-3.9C298.5,171.8,304.4,173.7,311,173.7L311,173.7z"/>
			<path class="st0" d="M365.4,163l1.8-33.8c-0.8-9.8-0.7-19.7-2.5-29.6c-0.8-4.2-8.8-5.1-11.1-5.4v-0.9h26v1
				c-1.2,0.3-10.2,1.2-10.6,5.3c-1,9.2-1.1,19.4-1.8,29.7c0.8,10.1,1,20.2,2.4,30.1c1.1,8.1,2.4,10.5,8.9,10.7
				c6.3,0.2,14.8,0.5,20.2-3.5c4.3-3.2,8.5-13.2,9.5-15.2l0.8,0.3l-6.6,20.5h-47.7v-0.8C355.8,171.1,365,170.3,365.4,163L365.4,163z
				"/>
		</g>
	</g>
</g>
</svg>
